<?xml version="1.0" encoding="utf-8"?>
<!-- Generator: Adobe Illustrator 22.1.0, SVG Export Plug-In . SVG Version: 6.00 Build 0)  -->
<svg version="1.1" id="Layer_1" xmlns="http://www.w3.org/2000/svg" xmlns:xlink="http://www.w3.org/1999/xlink" x="0px" y="0px"
	 viewBox="0 0 100 100" style="enable-background:new 0 0 100 100;" xml:space="preserve">
<style type="text/css">
	.st0{fill-rule:evenodd;clip-rule:evenodd;fill:#248389;}
	.st1{opacity:0.15;fill-rule:evenodd;clip-rule:evenodd;fill:#231F20;}
	.st2{fill-rule:evenodd;clip-rule:evenodd;fill:#30AEB6;}
</style>
<g>
	<path class="st0" d="M95.2,33.3c-5.5,2.4-8.6,3.6-8.6,3.6s0.8-1.3,0.5-1.1c-1.3,1.1-9.7,4-9.7,3.5c0-0.4,0.9-1.4,0.9-1.4
		s-3.8,2-4.4,2.7c-0.6,0.7-0.4-1.9-0.4-1.9s-3,2.5-3.4,3.2c-0.5,0.7-0.5,0.7-0.5,0.7l0.2-1.1c0,0-2.1,0.6-3.6,1.7
		c-1.5,1.1-1.5,1.1-1.5,1.1l0.5-1.4C53.8,47.6,48,64.6,54.7,76.3c10.7-14.9,17.6-24.8,36.5-38.9c0,0-0.7,0.9-4.2,4.1
		C75.9,52,64.7,65.3,57.6,75.7c-3.1,4.5-4.5,10-7.3,13.6c-0.6,0.7-0.9,2,0.1,3.1c0.6,0.7,1.4,0.4,1.3-0.4
		c-0.1-3.2,4.7-13.1,6.9-12.9c3,0.4,7.8,0.4,12.4-0.6c7.1-1.4,10.8-3.9,10.8-3.9L79.3,74c11.5-7.5,12.6-12.6,13.2-25.9l-1.4,0.8
		l1.3-5.1L91,44.7L95.2,33.3z"/>
	<path class="st1" d="M62.5,44.5c-8.8,5.4-13.2,18.6-9.1,29.1C60.7,65.6,63.6,54.5,62.5,44.5L62.5,44.5z M51.6,87.3
		c-0.4,0.7-0.9,1.4-1.3,2c-0.1,0.1-0.1,0.2-0.2,0.3c0.1,0.9,0.2,1.8,0.2,2.7c0,0,0.1,0.1,0.1,0.1c0.6,0.7,1.4,0.4,1.3-0.4
		c0-0.5,0.1-1.3,0.4-2.2C52,89.1,51.8,88.2,51.6,87.3z"/>
	<path class="st2" d="M7.8,1c6.9,5.2,11,7.9,11,7.9s-0.7-2.2-0.4-1.7c1.5,2,12.4,8.9,12.5,8.1c0.1-0.6-0.8-2.3-0.8-2.3
		s4.6,4,5.3,5.2c0.7,1.2,1.1-2.5,1.1-2.5s3.4,4.5,3.8,5.6c0.4,1.2,0.4,1.2,0.4,1.2l0.1-1.6c0,0,2.7,1.5,4.4,3.6
		c1.7,2.1,1.7,2.1,1.7,2.1l-0.2-2.1c14.6,10,17.2,35.8,4,50.1C40.5,50.2,34.1,33.9,12,8c0,0,0.7,1.5,4.5,7.2
		C29,33.5,40.4,55.8,47,72.8c2.9,7.4,3.6,16.4,6.3,22.4c0.6,1.2,0.1,2.2-1.7,3.4c-1.1,0.7-2,0.2-1.8-1c1.1-4.5-2.4-20-5.6-20.3
		c-4.4-0.5-11-2-17.3-4.8c-9.5-4.3-13.9-9-13.9-9l3.8-0.2C3.2,49.1,3.3,41.6,6.8,22.6l1.7,1.6l-0.2-7.7l1.8,1.8L7.8,1z"/>
</g>
</svg>
