<svg width="179" height="179" viewBox="0 0 179 179" fill="none" xmlns="http://www.w3.org/2000/svg">
  <path d="M89.1533 172.307C135.079 172.307 172.308 135.079 172.308 89.1533C172.308 43.228 135.079 6 89.1533 6C43.2293 6 6 43.228 6 89.1533C6 135.079 43.2293 172.307 89.1533 172.307Z" stroke="#80D07F" stroke-width="11.836" stroke-miterlimit="10"/>
  <path d="M98.9528 77.1403C97.7193 75.2866 95.8638 74.0495 92.4664 74.0495H86.5187V104.949H92.4664C95.8638 104.949 97.7193 103.712 98.9528 101.86C100.036 100.314 100.422 98.8468 100.422 89.4982C100.422 80.2293 100.036 78.6857 98.9528 77.1403V77.1403ZM111.238 107.729C107.453 113.833 101.657 117 93.3933 117H73V62H93.3933C101.657 62 107.453 65.167 111.238 71.2688C113.941 75.6711 113.941 79.9972 113.941 89.4982C113.941 99.001 113.941 103.325 111.238 107.729" fill="#80D07F"/>
</svg>
