<svg width="179" height="179" viewBox="0 0 179 179" fill="none" xmlns="http://www.w3.org/2000/svg">
  <path d="M89.0711 172.307C134.996 172.307 172.225 135.079 172.225 89.1533C172.225 43.228 134.996 6 89.0711 6C43.1471 6 5.91803 43.228 5.91803 89.1533C5.91803 135.079 43.1471 172.307 89.0711 172.307V172.307Z" stroke="#4AB3B5" stroke-width="11.836" stroke-miterlimit="10"/>
  <path d="M96.1655 74.1275H88.5189V85.2501H96.1655C99.8734 85.2501 102.036 82.5475 102.036 79.6888C102.036 76.8302 99.8734 74.1275 96.1655 74.1275V74.1275ZM96.784 97.3776H88.5189V117H75V62H96.784C108.989 62 115.555 70.6503 115.555 79.6888C115.555 88.7273 108.989 97.3776 96.784 97.3776" fill="#4AB3B5"/>
</svg>
