<svg width="179" height="179" viewBox="0 0 179 179" fill="none" xmlns="http://www.w3.org/2000/svg">
  <path d="M89.0713 172.225C134.993 172.225 172.225 134.997 172.225 89.0713C172.225 43.146 134.993 5.918 89.0713 5.918C43.1473 5.918 5.918 43.146 5.918 89.0713C5.918 134.997 43.1473 172.225 89.0713 172.225Z" stroke="#EEA510" stroke-width="11.836" stroke-miterlimit="10"/>
  <path d="M53.8607 81.338H48.238V89.514H53.8607C56.5847 89.514 58.1753 87.5273 58.1753 85.426C58.1753 83.3247 56.5847 81.338 53.8607 81.338V81.338ZM54.314 98.4287H48.238V112.853H38.3007V72.4233H54.314C63.2847 72.4233 68.1127 78.782 68.1127 85.426C68.1127 92.07 63.2847 98.4287 54.314 98.4287" fill="#EEA510"/>
  <path d="M90.5447 96.8393H83.8447V103.937H90.5447C93.2713 103.937 94.178 102.063 94.178 100.361C94.178 98.6567 93.2713 96.8393 90.5447 96.8393V96.8393ZM90.0353 81.338H83.8447V87.9247H90.0353C92.7593 87.9247 93.61 86.2207 93.61 84.6313C93.61 83.0407 92.7593 81.338 90.0353 81.338V81.338ZM91.5113 112.853H73.9073V72.4233H90.6593C99.0633 72.4233 103.547 77.1353 103.547 84.1207C103.547 88.7193 100.369 91.2753 99.118 92.126C100.766 93.1487 104.115 95.2487 104.115 100.927C104.115 108.65 98.722 112.853 91.5113 112.853" fill="#EEA510"/>
  <path d="M126.55 81.338H120.927V89.514H126.55C129.274 89.514 130.866 87.5273 130.866 85.426C130.866 83.3247 129.274 81.338 126.55 81.338V81.338ZM131.433 112.853L124.277 97.8047H120.927V112.853H110.99V72.4233H127.003C135.975 72.4233 140.803 78.782 140.803 85.426C140.803 90.934 137.394 94.398 134.214 95.9873L142.959 112.853H131.433" fill="#EEA510"/>
</svg>
